<svg width="1200" height="630" viewBox="0 0 1200 630" xmlns="http://www.w3.org/2000/svg">
  <defs>
    <linearGradient id="bgGradBCP" x1="0%" y1="0%" x2="100%" y2="100%">
      <stop offset="0%" style="stop-color:#162640;stop-opacity:1" />
      <stop offset="100%" style="stop-color:#0f1d33;stop-opacity:1" />
    </linearGradient>
    <linearGradient id="layerGrad" x1="0%" y1="0%" x2="100%" y2="0%">
      <stop offset="0%" style="stop-color:#534AB7;stop-opacity:0.5" />
      <stop offset="100%" style="stop-color:#3E77FF;stop-opacity:0.8" />
    </linearGradient>
    <linearGradient id="enrichGrad" x1="0%" y1="0%" x2="100%" y2="0%">
      <stop offset="0%" style="stop-color:#3E77FF;stop-opacity:0.8" />
      <stop offset="100%" style="stop-color:#EF9F27;stop-opacity:0.9" />
    </linearGradient>
  </defs>

  <rect width="1200" height="630" fill="url(#bgGradBCP)"/>

  <!-- Subtle grid -->
  <g stroke="#91c1ff" stroke-width="0.3" opacity="0.08">
    <line x1="0" y1="0" x2="1200" y2="0"/><line x1="0" y1="30" x2="1200" y2="30"/><line x1="0" y1="60" x2="1200" y2="60"/><line x1="0" y1="90" x2="1200" y2="90"/><line x1="0" y1="120" x2="1200" y2="120"/><line x1="0" y1="150" x2="1200" y2="150"/><line x1="0" y1="180" x2="1200" y2="180"/><line x1="0" y1="210" x2="1200" y2="210"/><line x1="0" y1="240" x2="1200" y2="240"/><line x1="0" y1="270" x2="1200" y2="270"/><line x1="0" y1="300" x2="1200" y2="300"/><line x1="0" y1="330" x2="1200" y2="330"/><line x1="0" y1="360" x2="1200" y2="360"/><line x1="0" y1="390" x2="1200" y2="390"/><line x1="0" y1="420" x2="1200" y2="420"/><line x1="0" y1="450" x2="1200" y2="450"/><line x1="0" y1="480" x2="1200" y2="480"/><line x1="0" y1="510" x2="1200" y2="510"/><line x1="0" y1="540" x2="1200" y2="540"/><line x1="0" y1="570" x2="1200" y2="570"/><line x1="0" y1="600" x2="1200" y2="600"/><line x1="0" y1="630" x2="1200" y2="630"/>
    <line x1="0" y1="0" x2="0" y2="630"/><line x1="60" y1="0" x2="60" y2="630"/><line x1="120" y1="0" x2="120" y2="630"/><line x1="180" y1="0" x2="180" y2="630"/><line x1="240" y1="0" x2="240" y2="630"/><line x1="300" y1="0" x2="300" y2="630"/><line x1="360" y1="0" x2="360" y2="630"/><line x1="420" y1="0" x2="420" y2="630"/><line x1="480" y1="0" x2="480" y2="630"/><line x1="540" y1="0" x2="540" y2="630"/><line x1="600" y1="0" x2="600" y2="630"/><line x1="660" y1="0" x2="660" y2="630"/><line x1="720" y1="0" x2="720" y2="630"/><line x1="780" y1="0" x2="780" y2="630"/><line x1="840" y1="0" x2="840" y2="630"/><line x1="900" y1="0" x2="900" y2="630"/><line x1="960" y1="0" x2="960" y2="630"/><line x1="1020" y1="0" x2="1020" y2="630"/><line x1="1080" y1="0" x2="1080" y2="630"/><line x1="1140" y1="0" x2="1140" y2="630"/><line x1="1200" y1="0" x2="1200" y2="630"/>
  </g>

  <!-- FIVE HORIZONTAL DATA LAYER BANDS across the canvas (subtle) -->
  <!-- Layer 1: ONS -->
  <rect x="0" y="98" width="1200" height="2" fill="#534AB7" opacity="0.15"/>
  <!-- Layer 2: Land Registry -->
  <rect x="0" y="210" width="1200" height="2" fill="#534AB7" opacity="0.15"/>
  <!-- Layer 3: EPC -->
  <rect x="0" y="322" width="1200" height="2" fill="#3E77FF" opacity="0.15"/>
  <!-- Layer 4: Ofcom -->
  <rect x="0" y="434" width="1200" height="2" fill="#3E77FF" opacity="0.15"/>
  <!-- Layer 5: Met Office — near bottom -->
  <rect x="0" y="530" width="1200" height="2" fill="#91c1ff" opacity="0.12"/>

  <!-- LEFT: Three bare customer nodes — name + postcode only -->
  <!-- Customer 1 -->
  <circle cx="120" cy="175" r="14" fill="none" stroke="#534AB7" stroke-width="2" opacity="0.7"/>
  <circle cx="120" cy="175" r="5" fill="#534AB7" opacity="0.8"/>
  <!-- single connection to show minimal CRM data -->
  <line x1="134" y1="175" x2="170" y2="175" stroke="#534AB7" stroke-width="1.2" opacity="0.4"/>
  <circle cx="174" cy="175" r="3" fill="#534AB7" opacity="0.6"/>

  <!-- Customer 2 -->
  <circle cx="120" cy="315" r="14" fill="none" stroke="#534AB7" stroke-width="2" opacity="0.7"/>
  <circle cx="120" cy="315" r="5" fill="#534AB7" opacity="0.8"/>
  <line x1="134" y1="315" x2="170" y2="315" stroke="#534AB7" stroke-width="1.2" opacity="0.4"/>
  <circle cx="174" cy="315" r="3" fill="#534AB7" opacity="0.6"/>

  <!-- Customer 3 -->
  <circle cx="120" cy="455" r="14" fill="none" stroke="#534AB7" stroke-width="2" opacity="0.7"/>
  <circle cx="120" cy="455" r="5" fill="#534AB7" opacity="0.8"/>
  <line x1="134" y1="455" x2="170" y2="455" stroke="#534AB7" stroke-width="1.2" opacity="0.4"/>
  <circle cx="174" cy="455" r="3" fill="#534AB7" opacity="0.6"/>

  <!-- PROGRESSIVE ENRICHMENT: nodes growing through layers left to right -->

  <!-- Stage 1 (x≈300): After ONS layer -->
  <!-- C1 at this stage: 2 connections -->
  <circle cx="300" cy="175" r="12" fill="none" stroke="#534AB7" stroke-width="1.8" opacity="0.7"/>
  <circle cx="300" cy="175" r="4" fill="#534AB7" opacity="0.8"/>
  <line x1="184" y1="175" x2="288" y2="175" stroke="url(#layerGrad)" stroke-width="1.2" opacity="0.45"/>
  <line x1="300" y1="163" x2="300" y2="135" stroke="#534AB7" stroke-width="1" opacity="0.35"/>
  <circle cx="300" cy="131" r="3" fill="#534AB7" opacity="0.55"/>
  <line x1="300" y1="187" x2="300" y2="215" stroke="#534AB7" stroke-width="1" opacity="0.3"/>
  <circle cx="300" cy="219" r="3" fill="#534AB7" opacity="0.5"/>
  <!-- C2 -->
  <circle cx="300" cy="315" r="12" fill="none" stroke="#534AB7" stroke-width="1.8" opacity="0.7"/>
  <circle cx="300" cy="315" r="4" fill="#534AB7" opacity="0.8"/>
  <line x1="184" y1="315" x2="288" y2="315" stroke="url(#layerGrad)" stroke-width="1.2" opacity="0.45"/>
  <line x1="300" y1="303" x2="300" y2="275" stroke="#534AB7" stroke-width="1" opacity="0.35"/>
  <circle cx="300" cy="271" r="3" fill="#534AB7" opacity="0.55"/>
  <line x1="300" y1="327" x2="300" y2="355" stroke="#534AB7" stroke-width="1" opacity="0.3"/>
  <circle cx="300" cy="359" r="3" fill="#534AB7" opacity="0.5"/>
  <!-- C3 -->
  <circle cx="300" cy="455" r="12" fill="none" stroke="#534AB7" stroke-width="1.8" opacity="0.7"/>
  <circle cx="300" cy="455" r="4" fill="#534AB7" opacity="0.8"/>
  <line x1="184" y1="455" x2="288" y2="455" stroke="url(#layerGrad)" stroke-width="1.2" opacity="0.45"/>
  <line x1="300" y1="443" x2="300" y2="415" stroke="#534AB7" stroke-width="1" opacity="0.35"/>
  <circle cx="300" cy="411" r="3" fill="#534AB7" opacity="0.55"/>
  <line x1="300" y1="467" x2="300" y2="495" stroke="#534AB7" stroke-width="1" opacity="0.3"/>
  <circle cx="300" cy="499" r="3" fill="#534AB7" opacity="0.5"/>

  <!-- Stage 2 (x≈500): After Land Registry — growing further -->
  <!-- C1 -->
  <circle cx="500" cy="175" r="14" fill="none" stroke="#3E77FF" stroke-width="1.8" opacity="0.75"/>
  <circle cx="500" cy="175" r="5" fill="#3E77FF" opacity="0.8"/>
  <line x1="312" y1="175" x2="486" y2="175" stroke="url(#layerGrad)" stroke-width="1.4" opacity="0.5"/>
  <line x1="500" y1="161" x2="500" y2="120" stroke="#3E77FF" stroke-width="1.2" opacity="0.4"/>
  <circle cx="500" cy="116" r="4" fill="#3E77FF" opacity="0.6"/>
  <line x1="500" y1="189" x2="500" y2="228" stroke="#3E77FF" stroke-width="1.2" opacity="0.36"/>
  <circle cx="500" cy="232" r="4" fill="#3E77FF" opacity="0.55"/>
  <line x1="486" y1="165" x2="458" y2="140" stroke="#3E77FF" stroke-width="1" opacity="0.32"/>
  <circle cx="454" cy="136" r="3" fill="#3E77FF" opacity="0.5"/>
  <!-- C2 -->
  <circle cx="500" cy="315" r="14" fill="none" stroke="#3E77FF" stroke-width="1.8" opacity="0.75"/>
  <circle cx="500" cy="315" r="5" fill="#3E77FF" opacity="0.8"/>
  <line x1="312" y1="315" x2="486" y2="315" stroke="url(#layerGrad)" stroke-width="1.4" opacity="0.5"/>
  <line x1="500" y1="301" x2="500" y2="260" stroke="#3E77FF" stroke-width="1.2" opacity="0.4"/>
  <circle cx="500" cy="256" r="4" fill="#3E77FF" opacity="0.6"/>
  <line x1="500" y1="329" x2="500" y2="368" stroke="#3E77FF" stroke-width="1.2" opacity="0.36"/>
  <circle cx="500" cy="372" r="4" fill="#3E77FF" opacity="0.55"/>
  <line x1="514" y1="301" x2="542" y2="276" stroke="#3E77FF" stroke-width="1" opacity="0.32"/>
  <circle cx="546" cy="272" r="3" fill="#3E77FF" opacity="0.5"/>
  <!-- C3 -->
  <circle cx="500" cy="455" r="14" fill="none" stroke="#3E77FF" stroke-width="1.8" opacity="0.75"/>
  <circle cx="500" cy="455" r="5" fill="#3E77FF" opacity="0.8"/>
  <line x1="312" y1="455" x2="486" y2="455" stroke="url(#layerGrad)" stroke-width="1.4" opacity="0.5"/>
  <line x1="500" y1="441" x2="500" y2="400" stroke="#3E77FF" stroke-width="1.2" opacity="0.4"/>
  <circle cx="500" cy="396" r="4" fill="#3E77FF" opacity="0.6"/>
  <line x1="500" y1="469" x2="500" y2="508" stroke="#3E77FF" stroke-width="1.2" opacity="0.36"/>
  <circle cx="500" cy="512" r="4" fill="#3E77FF" opacity="0.55"/>

  <!-- Stage 3 (x≈700): After EPC, Ofcom — noticeably richer -->
  <!-- C1 -->
  <circle cx="700" cy="175" r="16" fill="none" stroke="#3E77FF" stroke-width="2" opacity="0.8"/>
  <circle cx="700" cy="175" r="6" fill="#3E77FF" opacity="0.85"/>
  <line x1="514" y1="175" x2="684" y2="175" stroke="url(#enrichGrad)" stroke-width="1.6" opacity="0.55"/>
  <line x1="700" y1="159" x2="700" y2="110" stroke="#3E77FF" stroke-width="1.4" opacity="0.5"/>
  <circle cx="700" cy="106" r="5" fill="#3E77FF" opacity="0.7"/>
  <line x1="700" y1="191" x2="700" y2="240" stroke="#91c1ff" stroke-width="1.4" opacity="0.45"/>
  <circle cx="700" cy="244" r="5" fill="#91c1ff" opacity="0.65"/>
  <line x1="716" y1="163" x2="750" y2="132" stroke="#3E77FF" stroke-width="1.2" opacity="0.38"/>
  <circle cx="754" cy="128" r="4" fill="#3E77FF" opacity="0.55"/>
  <line x1="684" y1="163" x2="648" y2="130" stroke="#91c1ff" stroke-width="1.2" opacity="0.35"/>
  <circle cx="644" cy="126" r="4" fill="#91c1ff" opacity="0.52"/>
  <line x1="684" y1="187" x2="648" y2="218" stroke="#91c1ff" stroke-width="1" opacity="0.3"/>
  <circle cx="644" cy="222" r="3" fill="#91c1ff" opacity="0.45"/>
  <!-- C2 -->
  <circle cx="700" cy="315" r="16" fill="none" stroke="#3E77FF" stroke-width="2" opacity="0.8"/>
  <circle cx="700" cy="315" r="6" fill="#3E77FF" opacity="0.85"/>
  <line x1="514" y1="315" x2="684" y2="315" stroke="url(#enrichGrad)" stroke-width="1.6" opacity="0.55"/>
  <line x1="700" y1="299" x2="700" y2="250" stroke="#3E77FF" stroke-width="1.4" opacity="0.5"/>
  <circle cx="700" cy="246" r="5" fill="#3E77FF" opacity="0.7"/>
  <line x1="700" y1="331" x2="700" y2="380" stroke="#91c1ff" stroke-width="1.4" opacity="0.45"/>
  <circle cx="700" cy="384" r="5" fill="#91c1ff" opacity="0.65"/>
  <line x1="716" y1="303" x2="756" y2="272" stroke="#EF9F27" stroke-width="1.2" opacity="0.4"/>
  <circle cx="760" cy="268" r="4" fill="#EF9F27" opacity="0.6"/>
  <line x1="684" y1="303" x2="644" y2="272" stroke="#3E77FF" stroke-width="1.2" opacity="0.35"/>
  <circle cx="640" cy="268" r="4" fill="#3E77FF" opacity="0.52"/>
  <line x1="716" y1="327" x2="756" y2="358" stroke="#91c1ff" stroke-width="1" opacity="0.32"/>
  <circle cx="760" cy="362" r="3" fill="#91c1ff" opacity="0.48"/>
  <!-- C3 -->
  <circle cx="700" cy="455" r="16" fill="none" stroke="#3E77FF" stroke-width="2" opacity="0.8"/>
  <circle cx="700" cy="455" r="6" fill="#3E77FF" opacity="0.85"/>
  <line x1="514" y1="455" x2="684" y2="455" stroke="url(#enrichGrad)" stroke-width="1.6" opacity="0.55"/>
  <line x1="700" y1="439" x2="700" y2="390" stroke="#3E77FF" stroke-width="1.4" opacity="0.5"/>
  <circle cx="700" cy="386" r="5" fill="#3E77FF" opacity="0.7"/>
  <line x1="700" y1="471" x2="700" y2="520" stroke="#91c1ff" stroke-width="1.4" opacity="0.45"/>
  <circle cx="700" cy="524" r="5" fill="#91c1ff" opacity="0.65"/>
  <line x1="684" y1="441" x2="648" y2="410" stroke="#91c1ff" stroke-width="1.2" opacity="0.35"/>
  <circle cx="644" cy="406" r="4" fill="#91c1ff" opacity="0.52"/>

  <!-- RIGHT: Fully enriched customer constellations (x≈950) -->
  <!-- Customer 1 — small retired household (modest connections, blue/purple palette) -->
  <circle cx="950" cy="155" r="20" fill="none" stroke="#EF9F27" stroke-width="2.5" opacity="0.85"/>
  <circle cx="950" cy="155" r="10" fill="none" stroke="#3E77FF" stroke-width="1.8" opacity="0.7"/>
  <circle cx="950" cy="155" r="4" fill="#EF9F27" opacity="0.9"/>
  <line x1="716" y1="175" x2="930" y2="160" stroke="url(#enrichGrad)" stroke-width="1.8" opacity="0.6"/>
  <line x1="950" y1="135" x2="950" y2="90" stroke="#3E77FF" stroke-width="1.5" opacity="0.55"/>
  <circle cx="950" cy="86" r="6" fill="#3E77FF" opacity="0.7"/>
  <line x1="970" y1="145" x2="1010" y2="110" stroke="#534AB7" stroke-width="1.4" opacity="0.48"/>
  <circle cx="1014" cy="106" r="5" fill="#534AB7" opacity="0.65"/>
  <line x1="970" y1="165" x2="1020" y2="180" stroke="#91c1ff" stroke-width="1.4" opacity="0.44"/>
  <circle cx="1024" cy="182" r="5" fill="#91c1ff" opacity="0.6"/>
  <line x1="930" y1="145" x2="890" y2="108" stroke="#534AB7" stroke-width="1.2" opacity="0.38"/>
  <circle cx="886" cy="104" r="4" fill="#534AB7" opacity="0.55"/>
  <line x1="930" y1="165" x2="886" y2="200" stroke="#91c1ff" stroke-width="1.2" opacity="0.34"/>
  <circle cx="882" cy="204" r="4" fill="#91c1ff" opacity="0.5"/>
  <circle cx="1060" cy="90" r="4" fill="#EF9F27" opacity="0.45"/>
  <line x1="1014" y1="106" x2="1060" y2="90" stroke="#EF9F27" stroke-width="1" opacity="0.28"/>

  <!-- Customer 2 — large high-income family (rich connections, amber/blue) -->
  <circle cx="950" cy="315" r="22" fill="none" stroke="#EF9F27" stroke-width="3" opacity="0.95"/>
  <circle cx="950" cy="315" r="12" fill="none" stroke="#3E77FF" stroke-width="2" opacity="0.75"/>
  <circle cx="950" cy="315" r="5" fill="#EF9F27" opacity="0.95"/>
  <line x1="716" y1="315" x2="928" y2="315" stroke="url(#enrichGrad)" stroke-width="2" opacity="0.65"/>
  <line x1="950" y1="293" x2="950" y2="240" stroke="#EF9F27" stroke-width="1.8" opacity="0.6"/>
  <circle cx="950" cy="236" r="7" fill="#EF9F27" opacity="0.75"/>
  <line x1="950" y1="337" x2="950" y2="390" stroke="#3E77FF" stroke-width="1.8" opacity="0.55"/>
  <circle cx="950" cy="394" r="7" fill="#3E77FF" opacity="0.7"/>
  <line x1="972" y1="299" x2="1020" y2="258" stroke="#EF9F27" stroke-width="1.6" opacity="0.55"/>
  <circle cx="1024" cy="254" r="6" fill="#EF9F27" opacity="0.72"/>
  <line x1="972" y1="331" x2="1020" y2="372" stroke="#3E77FF" stroke-width="1.6" opacity="0.52"/>
  <circle cx="1024" cy="376" r="6" fill="#3E77FF" opacity="0.68"/>
  <line x1="928" y1="299" x2="880" y2="258" stroke="#91c1ff" stroke-width="1.4" opacity="0.45"/>
  <circle cx="876" cy="254" r="5" fill="#91c1ff" opacity="0.62"/>
  <line x1="928" y1="331" x2="880" y2="372" stroke="#91c1ff" stroke-width="1.4" opacity="0.42"/>
  <circle cx="876" cy="376" r="5" fill="#91c1ff" opacity="0.58"/>
  <!-- Extra outer nodes for richness -->
  <circle cx="1080" cy="230" r="5" fill="#EF9F27" opacity="0.5"/>
  <line x1="1024" y1="254" x2="1080" y2="230" stroke="#EF9F27" stroke-width="1" opacity="0.3"/>
  <circle cx="1090" cy="370" r="5" fill="#3E77FF" opacity="0.45"/>
  <line x1="1024" y1="376" x2="1090" y2="370" stroke="#3E77FF" stroke-width="1" opacity="0.28"/>
  <circle cx="1100" cy="300" r="5" fill="#91c1ff" opacity="0.42"/>
  <line x1="1024" y1="254" x2="1100" y2="300" stroke="#91c1ff" stroke-width="1" opacity="0.25"/>

  <!-- Customer 3 — small family, low connectivity (modest, blue palette) -->
  <circle cx="950" cy="480" r="19" fill="none" stroke="#3E77FF" stroke-width="2.5" opacity="0.85"/>
  <circle cx="950" cy="480" r="10" fill="none" stroke="#91c1ff" stroke-width="1.8" opacity="0.65"/>
  <circle cx="950" cy="480" r="4" fill="#3E77FF" opacity="0.9"/>
  <line x1="716" y1="455" x2="931" y2="474" stroke="url(#enrichGrad)" stroke-width="1.8" opacity="0.58"/>
  <line x1="950" y1="461" x2="950" y2="420" stroke="#3E77FF" stroke-width="1.5" opacity="0.5"/>
  <circle cx="950" cy="416" r="6" fill="#3E77FF" opacity="0.65"/>
  <line x1="950" y1="499" x2="950" y2="545" stroke="#91c1ff" stroke-width="1.5" opacity="0.45"/>
  <circle cx="950" cy="549" r="6" fill="#91c1ff" opacity="0.58"/>
  <line x1="969" y1="467" x2="1010" y2="438" stroke="#3E77FF" stroke-width="1.4" opacity="0.45"/>
  <circle cx="1014" cy="434" r="5" fill="#3E77FF" opacity="0.6"/>
  <line x1="969" y1="493" x2="1010" y2="522" stroke="#91c1ff" stroke-width="1.4" opacity="0.4"/>
  <circle cx="1014" cy="526" r="5" fill="#91c1ff" opacity="0.55"/>
  <line x1="931" y1="467" x2="890" y2="436" stroke="#91c1ff" stroke-width="1.2" opacity="0.38"/>
  <circle cx="886" cy="432" r="4" fill="#91c1ff" opacity="0.52"/>
  <line x1="931" y1="493" x2="890" y2="522" stroke="#3E77FF" stroke-width="1.2" opacity="0.34"/>
  <circle cx="886" cy="526" r="4" fill="#3E77FF" opacity="0.48"/>
  <circle cx="1070" cy="420" r="4" fill="#EF9F27" opacity="0.38"/>
  <line x1="1014" y1="434" x2="1070" y2="420" stroke="#EF9F27" stroke-width="1" opacity="0.24"/>
</svg>
