<svg width="1200" height="630" viewBox="0 0 1200 630" xmlns="http://www.w3.org/2000/svg">
  <defs>
    <linearGradient id="bgGradFS" x1="0%" y1="0%" x2="100%" y2="100%">
      <stop offset="0%" style="stop-color:#162640;stop-opacity:1" />
      <stop offset="100%" style="stop-color:#0f1d33;stop-opacity:1" />
    </linearGradient>
  </defs>

  <rect width="1200" height="630" fill="url(#bgGradFS)"/>

  <!-- Subtle grid pattern -->
  <g stroke="#91c1ff" stroke-width="0.3" opacity="0.08">
    <line x1="0" y1="0" x2="1200" y2="0" /><line x1="0" y1="60" x2="1200" y2="60" /><line x1="0" y1="120" x2="1200" y2="120" /><line x1="0" y1="180" x2="1200" y2="180" /><line x1="0" y1="240" x2="1200" y2="240" /><line x1="0" y1="300" x2="1200" y2="300" /><line x1="0" y1="360" x2="1200" y2="360" /><line x1="0" y1="420" x2="1200" y2="420" /><line x1="0" y1="480" x2="1200" y2="480" /><line x1="0" y1="540" x2="1200" y2="540" /><line x1="0" y1="600" x2="1200" y2="600" />
    <line x1="0" y1="0" x2="0" y2="630" /><line x1="120" y1="0" x2="120" y2="630" /><line x1="240" y1="0" x2="240" y2="630" /><line x1="360" y1="0" x2="360" y2="630" /><line x1="480" y1="0" x2="480" y2="630" /><line x1="600" y1="0" x2="600" y2="630" /><line x1="720" y1="0" x2="720" y2="630" /><line x1="840" y1="0" x2="840" y2="630" /><line x1="960" y1="0" x2="960" y2="630" /><line x1="1080" y1="0" x2="1080" y2="630" /><line x1="1200" y1="0" x2="1200" y2="630" />
  </g>

  <!-- Central hub: credit decision node -->
  <circle cx="600" cy="315" r="48" fill="none" stroke="#3E77FF" stroke-width="2" opacity="0.9"/>
  <circle cx="600" cy="315" r="28" fill="#3E77FF" opacity="0.3"/>
  <circle cx="600" cy="315" r="12" fill="#3E77FF" opacity="0.95"/>

  <!-- Applicant nodes fanning in from left -->
  <circle cx="200" cy="180" r="16" fill="none" stroke="#91c1ff" stroke-width="1.5" opacity="0.7"/>
  <circle cx="200" cy="180" r="7" fill="#91c1ff" opacity="0.7"/>
  <circle cx="160" cy="315" r="16" fill="none" stroke="#91c1ff" stroke-width="1.5" opacity="0.7"/>
  <circle cx="160" cy="315" r="7" fill="#91c1ff" opacity="0.7"/>
  <circle cx="200" cy="450" r="16" fill="none" stroke="#91c1ff" stroke-width="1.5" opacity="0.7"/>
  <circle cx="200" cy="450" r="7" fill="#91c1ff" opacity="0.7"/>
  <circle cx="300" cy="120" r="12" fill="none" stroke="#91c1ff" stroke-width="1.2" opacity="0.5"/>
  <circle cx="300" cy="120" r="5" fill="#91c1ff" opacity="0.5"/>
  <circle cx="300" cy="510" r="12" fill="none" stroke="#91c1ff" stroke-width="1.2" opacity="0.5"/>
  <circle cx="300" cy="510" r="5" fill="#91c1ff" opacity="0.5"/>

  <!-- Lines from applicants to hub -->
  <line x1="216" y1="180" x2="558" y2="298" stroke="#91c1ff" stroke-width="1.2" opacity="0.35"/>
  <line x1="176" y1="315" x2="552" y2="315" stroke="#91c1ff" stroke-width="1.2" opacity="0.35"/>
  <line x1="216" y1="450" x2="558" y2="332" stroke="#91c1ff" stroke-width="1.2" opacity="0.35"/>
  <line x1="312" y1="120" x2="562" y2="277" stroke="#91c1ff" stroke-width="1" opacity="0.25"/>
  <line x1="312" y1="510" x2="562" y2="353" stroke="#91c1ff" stroke-width="1" opacity="0.25"/>

  <!-- Neighbourhood data nodes coming from right -->
  <circle cx="900" cy="160" r="14" fill="#EF9F27" opacity="0.9"/>
  <circle cx="960" cy="260" r="12" fill="#EF9F27" opacity="0.8"/>
  <circle cx="980" cy="370" r="14" fill="#EF9F27" opacity="0.9"/>
  <circle cx="900" cy="470" r="12" fill="#EF9F27" opacity="0.8"/>
  <circle cx="820" cy="120" r="10" fill="#EF9F27" opacity="0.6"/>
  <circle cx="840" cy="510" r="10" fill="#EF9F27" opacity="0.6"/>

  <!-- Lines from data nodes to hub -->
  <line x1="886" y1="166" x2="643" y2="297" stroke="#EF9F27" stroke-width="1.5" opacity="0.4"/>
  <line x1="948" y1="265" x2="648" y2="308" stroke="#EF9F27" stroke-width="1.5" opacity="0.4"/>
  <line x1="966" y1="364" x2="648" y2="322" stroke="#EF9F27" stroke-width="1.5" opacity="0.4"/>
  <line x1="886" y1="464" x2="643" y2="333" stroke="#EF9F27" stroke-width="1.5" opacity="0.4"/>
  <line x1="810" y1="122" x2="640" y2="279" stroke="#EF9F27" stroke-width="1" opacity="0.25"/>
  <line x1="830" y1="506" x2="640" y2="351" stroke="#EF9F27" stroke-width="1" opacity="0.25"/>

  <!-- Interconnect data nodes -->
  <line x1="900" y1="160" x2="960" y2="260" stroke="#EF9F27" stroke-width="1" opacity="0.3"/>
  <line x1="960" y1="260" x2="980" y2="370" stroke="#EF9F27" stroke-width="1" opacity="0.3"/>
  <line x1="980" y1="370" x2="900" y2="470" stroke="#EF9F27" stroke-width="1" opacity="0.3"/>

  <!-- Output decision nodes (approved / referred) -->
  <circle cx="480" cy="480" r="10" fill="#3E77FF" opacity="0.7"/>
  <circle cx="720" cy="480" r="10" fill="#3E77FF" opacity="0.7"/>
  <line x1="590" y1="363" x2="484" y2="472" stroke="#3E77FF" stroke-width="1" opacity="0.3"/>
  <line x1="610" y1="363" x2="716" y2="472" stroke="#3E77FF" stroke-width="1" opacity="0.3"/>

  <!-- Label area: faint postcode grid overlay bottom-left -->
  <rect x="60" y="360" width="80" height="60" fill="none" stroke="#91c1ff" stroke-width="0.5" opacity="0.15"/>
  <rect x="60" y="420" width="80" height="60" fill="none" stroke="#91c1ff" stroke-width="0.5" opacity="0.15"/>
  <rect x="140" y="360" width="80" height="60" fill="none" stroke="#91c1ff" stroke-width="0.5" opacity="0.15"/>
  <rect x="140" y="420" width="80" height="60" fill="none" stroke="#91c1ff" stroke-width="0.5" opacity="0.1"/>
  <rect x="60" y="360" width="80" height="60" fill="#3E77FF" opacity="0.05"/>
  <rect x="140" y="420" width="80" height="60" fill="#EF9F27" opacity="0.06"/>
</svg>
