<svg width="1200" height="630" viewBox="0 0 1200 630" xmlns="http://www.w3.org/2000/svg">
  <defs>
    <linearGradient id="bgGradOD" x1="0%" y1="0%" x2="100%" y2="100%">
      <stop offset="0%" style="stop-color:#162640;stop-opacity:1" />
      <stop offset="100%" style="stop-color:#0f1d33;stop-opacity:1" />
    </linearGradient>
    <linearGradient id="streamGrad" x1="0%" y1="0%" x2="100%" y2="0%">
      <stop offset="0%" style="stop-color:#534AB7;stop-opacity:0.6" />
      <stop offset="100%" style="stop-color:#3E77FF;stop-opacity:0.9" />
    </linearGradient>
    <linearGradient id="outGrad" x1="0%" y1="0%" x2="100%" y2="0%">
      <stop offset="0%" style="stop-color:#3E77FF;stop-opacity:0.9" />
      <stop offset="100%" style="stop-color:#EF9F27;stop-opacity:0.9" />
    </linearGradient>
  </defs>

  <rect width="1200" height="630" fill="url(#bgGradOD)"/>

  <!-- Subtle grid -->
  <g stroke="#91c1ff" stroke-width="0.3" opacity="0.08">
    <line x1="0" y1="0" x2="1200" y2="0"/><line x1="0" y1="30" x2="1200" y2="30"/><line x1="0" y1="60" x2="1200" y2="60"/><line x1="0" y1="90" x2="1200" y2="90"/><line x1="0" y1="120" x2="1200" y2="120"/><line x1="0" y1="150" x2="1200" y2="150"/><line x1="0" y1="180" x2="1200" y2="180"/><line x1="0" y1="210" x2="1200" y2="210"/><line x1="0" y1="240" x2="1200" y2="240"/><line x1="0" y1="270" x2="1200" y2="270"/><line x1="0" y1="300" x2="1200" y2="300"/><line x1="0" y1="330" x2="1200" y2="330"/><line x1="0" y1="360" x2="1200" y2="360"/><line x1="0" y1="390" x2="1200" y2="390"/><line x1="0" y1="420" x2="1200" y2="420"/><line x1="0" y1="450" x2="1200" y2="450"/><line x1="0" y1="480" x2="1200" y2="480"/><line x1="0" y1="510" x2="1200" y2="510"/><line x1="0" y1="540" x2="1200" y2="540"/><line x1="0" y1="570" x2="1200" y2="570"/><line x1="0" y1="600" x2="1200" y2="600"/><line x1="0" y1="630" x2="1200" y2="630"/>
    <line x1="0" y1="0" x2="0" y2="630"/><line x1="60" y1="0" x2="60" y2="630"/><line x1="120" y1="0" x2="120" y2="630"/><line x1="180" y1="0" x2="180" y2="630"/><line x1="240" y1="0" x2="240" y2="630"/><line x1="300" y1="0" x2="300" y2="630"/><line x1="360" y1="0" x2="360" y2="630"/><line x1="420" y1="0" x2="420" y2="630"/><line x1="480" y1="0" x2="480" y2="630"/><line x1="540" y1="0" x2="540" y2="630"/><line x1="600" y1="0" x2="600" y2="630"/><line x1="660" y1="0" x2="660" y2="630"/><line x1="720" y1="0" x2="720" y2="630"/><line x1="780" y1="0" x2="780" y2="630"/><line x1="840" y1="0" x2="840" y2="630"/><line x1="900" y1="0" x2="900" y2="630"/><line x1="960" y1="0" x2="960" y2="630"/><line x1="1020" y1="0" x2="1020" y2="630"/><line x1="1080" y1="0" x2="1080" y2="630"/><line x1="1140" y1="0" x2="1140" y2="630"/><line x1="1200" y1="0" x2="1200" y2="630"/>
  </g>

  <!-- LEFT: Five open data source nodes (representing ONS, Land Registry, EPC, Ofcom, Met Office) -->
  <!-- Source 1: ONS — top -->
  <rect x="60" y="80" width="160" height="48" rx="6" fill="none" stroke="#534AB7" stroke-width="1.8" opacity="0.72"/>
  <circle cx="88" cy="104" r="6" fill="#534AB7" opacity="0.84"/>
  <line x1="104" y1="104" x2="196" y2="104" stroke="#534AB7" stroke-width="1" opacity="0.4"/>
  <line x1="104" y1="114" x2="176" y2="114" stroke="#534AB7" stroke-width="1" opacity="0.28"/>

  <!-- Source 2: Land Registry -->
  <rect x="60" y="178" width="160" height="48" rx="6" fill="none" stroke="#534AB7" stroke-width="1.8" opacity="0.66"/>
  <circle cx="88" cy="202" r="6" fill="#534AB7" opacity="0.78"/>
  <line x1="104" y1="202" x2="196" y2="202" stroke="#534AB7" stroke-width="1" opacity="0.36"/>
  <line x1="104" y1="212" x2="180" y2="212" stroke="#534AB7" stroke-width="1" opacity="0.24"/>

  <!-- Source 3: EPC — centre -->
  <rect x="60" y="276" width="160" height="48" rx="6" fill="none" stroke="#3E77FF" stroke-width="1.8" opacity="0.66"/>
  <circle cx="88" cy="300" r="6" fill="#3E77FF" opacity="0.78"/>
  <line x1="104" y1="300" x2="196" y2="300" stroke="#3E77FF" stroke-width="1" opacity="0.36"/>
  <line x1="104" y1="310" x2="172" y2="310" stroke="#3E77FF" stroke-width="1" opacity="0.24"/>

  <!-- Source 4: Ofcom -->
  <rect x="60" y="374" width="160" height="48" rx="6" fill="none" stroke="#3E77FF" stroke-width="1.8" opacity="0.6"/>
  <circle cx="88" cy="398" r="6" fill="#3E77FF" opacity="0.72"/>
  <line x1="104" y1="398" x2="196" y2="398" stroke="#3E77FF" stroke-width="1" opacity="0.32"/>
  <line x1="104" y1="408" x2="184" y2="408" stroke="#3E77FF" stroke-width="1" opacity="0.22"/>

  <!-- Source 5: Met Office — bottom -->
  <rect x="60" y="472" width="160" height="48" rx="6" fill="none" stroke="#91c1ff" stroke-width="1.8" opacity="0.54"/>
  <circle cx="88" cy="496" r="6" fill="#91c1ff" opacity="0.66"/>
  <line x1="104" y1="496" x2="196" y2="496" stroke="#91c1ff" stroke-width="1" opacity="0.28"/>
  <line x1="104" y1="506" x2="178" y2="506" stroke="#91c1ff" stroke-width="1" opacity="0.2"/>

  <!-- Streams from each source flowing right toward central aggregator node (cx=560) -->
  <!-- Source 1 → centre -->
  <path d="M 220 104 Q 390 104 430 270 T 560 315" stroke="url(#streamGrad)" stroke-width="1.8" fill="none" opacity="0.5"/>
  <!-- Source 2 → centre -->
  <path d="M 220 202 Q 380 202 450 270 T 560 315" stroke="url(#streamGrad)" stroke-width="1.8" fill="none" opacity="0.52"/>
  <!-- Source 3 → centre -->
  <path d="M 220 300 Q 390 300 480 307" stroke="url(#streamGrad)" stroke-width="2" fill="none" opacity="0.56"/>
  <!-- Source 4 → centre -->
  <path d="M 220 398 Q 380 398 450 355 T 560 315" stroke="url(#streamGrad)" stroke-width="1.8" fill="none" opacity="0.52"/>
  <!-- Source 5 → centre -->
  <path d="M 220 496 Q 390 496 430 360 T 560 315" stroke="url(#streamGrad)" stroke-width="1.8" fill="none" opacity="0.48"/>

  <!-- Flow pulse dots on stream paths -->
  <circle cx="310" cy="104" r="4" fill="#534AB7" opacity="0.7"/>
  <circle cx="400" cy="160" r="3" fill="#534AB7" opacity="0.55"/>
  <circle cx="310" cy="202" r="4" fill="#534AB7" opacity="0.65"/>
  <circle cx="420" cy="245" r="3" fill="#534AB7" opacity="0.5"/>
  <circle cx="350" cy="300" r="4" fill="#3E77FF" opacity="0.65"/>
  <circle cx="460" cy="305" r="3" fill="#3E77FF" opacity="0.5"/>
  <circle cx="310" cy="398" r="4" fill="#3E77FF" opacity="0.6"/>
  <circle cx="400" cy="370" r="3" fill="#3E77FF" opacity="0.48"/>
  <circle cx="310" cy="496" r="4" fill="#91c1ff" opacity="0.55"/>
  <circle cx="400" cy="440" r="3" fill="#91c1ff" opacity="0.42"/>

  <!-- CENTRAL AGGREGATOR NODE -->
  <circle cx="560" cy="315" r="28" fill="none" stroke="#3E77FF" stroke-width="2.5" opacity="0.6"/>
  <circle cx="560" cy="315" r="18" fill="none" stroke="#3E77FF" stroke-width="2" opacity="0.5"/>
  <circle cx="560" cy="315" r="9" fill="#3E77FF" opacity="0.85"/>

  <!-- Stream from aggregator to enriched customer node (cx=820) -->
  <line x1="588" y1="315" x2="750" y2="315" stroke="url(#outGrad)" stroke-width="3" opacity="0.7"/>
  <circle cx="650" cy="315" r="5" fill="#3E77FF" opacity="0.8"/>
  <circle cx="700" cy="315" r="4" fill="#91c1ff" opacity="0.7"/>

  <!-- RIGHT: Enriched customer constellation -->
  <!-- Central customer node -->
  <circle cx="820" cy="315" r="22" fill="none" stroke="#EF9F27" stroke-width="3" opacity="0.9"/>
  <circle cx="820" cy="315" r="12" fill="none" stroke="#3E77FF" stroke-width="2" opacity="0.7"/>
  <circle cx="820" cy="315" r="5" fill="#EF9F27" opacity="0.95"/>

  <!-- Five attribute satellite nodes (one per data source) -->
  <circle cx="820" cy="200" r="14" fill="none" stroke="#534AB7" stroke-width="2" opacity="0.85"/>
  <circle cx="820" cy="200" r="6" fill="#534AB7" opacity="0.85"/>
  <line x1="820" y1="315" x2="820" y2="214" stroke="#534AB7" stroke-width="1.8" opacity="0.5"/>

  <circle cx="920" cy="250" r="14" fill="none" stroke="#3E77FF" stroke-width="2" opacity="0.85"/>
  <circle cx="920" cy="250" r="6" fill="#3E77FF" opacity="0.85"/>
  <line x1="820" y1="315" x2="906" y2="258" stroke="#3E77FF" stroke-width="1.8" opacity="0.5"/>

  <circle cx="960" cy="360" r="14" fill="none" stroke="#3E77FF" stroke-width="2" opacity="0.8"/>
  <circle cx="960" cy="360" r="6" fill="#3E77FF" opacity="0.8"/>
  <line x1="820" y1="315" x2="946" y2="353" stroke="#3E77FF" stroke-width="1.8" opacity="0.48"/>

  <circle cx="870" cy="430" r="14" fill="none" stroke="#91c1ff" stroke-width="2" opacity="0.8"/>
  <circle cx="870" cy="430" r="6" fill="#91c1ff" opacity="0.8"/>
  <line x1="820" y1="315" x2="866" y2="416" stroke="#91c1ff" stroke-width="1.8" opacity="0.46"/>

  <circle cx="730" cy="250" r="14" fill="none" stroke="#EF9F27" stroke-width="2" opacity="0.82"/>
  <circle cx="730" cy="250" r="6" fill="#EF9F27" opacity="0.82"/>
  <line x1="820" y1="315" x2="742" y2="261" stroke="#EF9F27" stroke-width="1.8" opacity="0.48"/>

  <!-- Outer satellite ring connections -->
  <line x1="820" y1="200" x2="920" y2="250" stroke="#91c1ff" stroke-width="1.2" opacity="0.25"/>
  <line x1="920" y1="250" x2="960" y2="360" stroke="#3E77FF" stroke-width="1.2" opacity="0.25"/>
  <line x1="960" y1="360" x2="870" y2="430" stroke="#91c1ff" stroke-width="1.2" opacity="0.22"/>
  <line x1="870" y1="430" x2="730" y2="250" stroke="#EF9F27" stroke-width="1.2" opacity="0.2"/>
  <line x1="730" y1="250" x2="820" y2="200" stroke="#3E77FF" stroke-width="1.2" opacity="0.22"/>

  <!-- Far outer micro-nodes — richness of enriched profile -->
  <circle cx="1040" cy="200" r="5" fill="#EF9F27" opacity="0.6"/>
  <line x1="920" y1="250" x2="1040" y2="200" stroke="#EF9F27" stroke-width="1" opacity="0.3"/>
  <circle cx="1080" cy="315" r="5" fill="#3E77FF" opacity="0.55"/>
  <line x1="960" y1="360" x2="1080" y2="315" stroke="#3E77FF" stroke-width="1" opacity="0.28"/>
  <circle cx="1020" cy="440" r="5" fill="#91c1ff" opacity="0.5"/>
  <line x1="960" y1="360" x2="1020" y2="440" stroke="#91c1ff" stroke-width="1" opacity="0.26"/>
  <circle cx="760" cy="140" r="5" fill="#534AB7" opacity="0.55"/>
  <line x1="820" y1="200" x2="760" y2="140" stroke="#534AB7" stroke-width="1" opacity="0.28"/>
  <circle cx="680" cy="370" r="5" fill="#EF9F27" opacity="0.5"/>
  <line x1="730" y1="250" x2="680" y2="370" stroke="#EF9F27" stroke-width="1" opacity="0.25"/>
</svg>
