<svg width="1200" height="630" viewBox="0 0 1200 630" xmlns="http://www.w3.org/2000/svg">
  <defs>
    <linearGradient id="bgGrad7" x1="0%" y1="0%" x2="100%" y2="100%">
      <stop offset="0%" style="stop-color:#0d1b3e;stop-opacity:1" />
      <stop offset="100%" style="stop-color:#060e1f;stop-opacity:1" />
    </linearGradient>
  </defs>

  <rect width="1200" height="630" fill="url(#bgGrad7)"/>

  <!-- Subtle grid pattern -->
  <g stroke="#91c1ff" stroke-width="0.3" opacity="0.06">
    <line x1="0" y1="0" x2="1200" y2="0" />
    <line x1="0" y1="30" x2="1200" y2="30" />
    <line x1="0" y1="60" x2="1200" y2="60" />
    <line x1="0" y1="90" x2="1200" y2="90" />
    <line x1="0" y1="120" x2="1200" y2="120" />
    <line x1="0" y1="150" x2="1200" y2="150" />
    <line x1="0" y1="180" x2="1200" y2="180" />
    <line x1="0" y1="210" x2="1200" y2="210" />
    <line x1="0" y1="240" x2="1200" y2="240" />
    <line x1="0" y1="270" x2="1200" y2="270" />
    <line x1="0" y1="300" x2="1200" y2="300" />
    <line x1="0" y1="330" x2="1200" y2="330" />
    <line x1="0" y1="360" x2="1200" y2="360" />
    <line x1="0" y1="390" x2="1200" y2="390" />
    <line x1="0" y1="420" x2="1200" y2="420" />
    <line x1="0" y1="450" x2="1200" y2="450" />
    <line x1="0" y1="480" x2="1200" y2="480" />
    <line x1="0" y1="510" x2="1200" y2="510" />
    <line x1="0" y1="540" x2="1200" y2="540" />
    <line x1="0" y1="570" x2="1200" y2="570" />
    <line x1="0" y1="600" x2="1200" y2="600" />
    <line x1="0" y1="630" x2="1200" y2="630" />

    <line x1="0" y1="0" x2="0" y2="630" />
    <line x1="60" y1="0" x2="60" y2="630" />
    <line x1="120" y1="0" x2="120" y2="630" />
    <line x1="180" y1="0" x2="180" y2="630" />
    <line x1="240" y1="0" x2="240" y2="630" />
    <line x1="300" y1="0" x2="300" y2="630" />
    <line x1="360" y1="0" x2="360" y2="630" />
    <line x1="420" y1="0" x2="420" y2="630" />
    <line x1="480" y1="0" x2="480" y2="630" />
    <line x1="540" y1="0" x2="540" y2="630" />
    <line x1="600" y1="0" x2="600" y2="630" />
    <line x1="660" y1="0" x2="660" y2="630" />
    <line x1="720" y1="0" x2="720" y2="630" />
    <line x1="780" y1="0" x2="780" y2="630" />
    <line x1="840" y1="0" x2="840" y2="630" />
    <line x1="900" y1="0" x2="900" y2="630" />
    <line x1="960" y1="0" x2="960" y2="630" />
    <line x1="1020" y1="0" x2="1020" y2="630" />
    <line x1="1080" y1="0" x2="1080" y2="630" />
    <line x1="1140" y1="0" x2="1140" y2="630" />
    <line x1="1200" y1="0" x2="1200" y2="630" />
  </g>

  <!-- BACKGROUND: Grid of small postcode-like rectangles -->
  <g opacity="0.08" stroke="#3E77FF" stroke-width="0.5">
    <rect x="150" y="100" width="35" height="28" fill="none"/>
    <rect x="200" y="100" width="35" height="28" fill="none"/>
    <rect x="250" y="100" width="35" height="28" fill="none"/>
    <rect x="300" y="100" width="35" height="28" fill="none"/>
    <rect x="350" y="100" width="35" height="28" fill="none"/>
    <rect x="400" y="100" width="35" height="28" fill="none"/>
    <rect x="450" y="100" width="35" height="28" fill="none"/>
    <rect x="500" y="100" width="35" height="28" fill="none"/>

    <rect x="150" y="150" width="35" height="28" fill="none"/>
    <rect x="200" y="150" width="35" height="28" fill="none"/>
    <rect x="250" y="150" width="35" height="28" fill="none"/>
    <rect x="300" y="150" width="35" height="28" fill="none"/>
    <rect x="350" y="150" width="35" height="28" fill="none"/>
    <rect x="400" y="150" width="35" height="28" fill="none"/>
    <rect x="450" y="150" width="35" height="28" fill="none"/>
    <rect x="500" y="150" width="35" height="28" fill="none"/>

    <rect x="150" y="200" width="35" height="28" fill="none"/>
    <rect x="200" y="200" width="35" height="28" fill="none"/>
    <rect x="250" y="200" width="35" height="28" fill="none"/>
    <rect x="300" y="200" width="35" height="28" fill="none"/>
    <rect x="350" y="200" width="35" height="28" fill="none"/>
    <rect x="400" y="200" width="35" height="28" fill="none"/>
    <rect x="450" y="200" width="35" height="28" fill="none"/>
    <rect x="500" y="200" width="35" height="28" fill="none"/>

    <rect x="150" y="250" width="35" height="28" fill="none"/>
    <rect x="200" y="250" width="35" height="28" fill="none"/>
    <rect x="250" y="250" width="35" height="28" fill="none"/>
    <rect x="300" y="250" width="35" height="28" fill="none"/>
    <rect x="350" y="250" width="35" height="28" fill="none"/>
    <rect x="400" y="250" width="35" height="28" fill="none"/>
    <rect x="450" y="250" width="35" height="28" fill="none"/>
    <rect x="500" y="250" width="35" height="28" fill="none"/>

    <rect x="150" y="300" width="35" height="28" fill="none"/>
    <rect x="200" y="300" width="35" height="28" fill="none"/>
    <rect x="250" y="300" width="35" height="28" fill="none"/>
    <rect x="300" y="300" width="35" height="28" fill="none"/>
    <rect x="350" y="300" width="35" height="28" fill="none"/>
    <rect x="400" y="300" width="35" height="28" fill="none"/>
    <rect x="450" y="300" width="35" height="28" fill="none"/>
    <rect x="500" y="300" width="35" height="28" fill="none"/>

    <rect x="150" y="350" width="35" height="28" fill="none"/>
    <rect x="200" y="350" width="35" height="28" fill="none"/>
    <rect x="250" y="350" width="35" height="28" fill="none"/>
    <rect x="300" y="350" width="35" height="28" fill="none"/>
    <rect x="350" y="350" width="35" height="28" fill="none"/>
    <rect x="400" y="350" width="35" height="28" fill="none"/>
    <rect x="450" y="350" width="35" height="28" fill="none"/>
    <rect x="500" y="350" width="35" height="28" fill="none"/>

    <rect x="150" y="400" width="35" height="28" fill="none"/>
    <rect x="200" y="400" width="35" height="28" fill="none"/>
    <rect x="250" y="400" width="35" height="28" fill="none"/>
    <rect x="300" y="400" width="35" height="28" fill="none"/>
    <rect x="350" y="400" width="35" height="28" fill="none"/>
    <rect x="400" y="400" width="35" height="28" fill="none"/>
    <rect x="450" y="400" width="35" height="28" fill="none"/>
    <rect x="500" y="400" width="35" height="28" fill="none"/>
  </g>

  <!-- SHIELD SHAPE made of constellation nodes (protecting the data) -->
  <!-- Shield outline (using nodes as perimeter) -->
  <!-- Top left arc of shield -->
  <circle cx="700" cy="150" r="8" fill="#3E77FF" opacity="0.8"/>
  <circle cx="730" cy="140" r="8" fill="#3E77FF" opacity="0.8"/>
  <circle cx="760" cy="145" r="8" fill="#3E77FF" opacity="0.8"/>

  <!-- Top right arc -->
  <circle cx="790" cy="155" r="8" fill="#3E77FF" opacity="0.8"/>
  <circle cx="810" cy="175" r="8" fill="#3E77FF" opacity="0.8"/>

  <!-- Right side of shield -->
  <circle cx="820" cy="210" r="8" fill="#3E77FF" opacity="0.75"/>
  <circle cx="825" cy="250" r="8" fill="#3E77FF" opacity="0.75"/>
  <circle cx="820" cy="290" r="8" fill="#3E77FF" opacity="0.75"/>
  <circle cx="810" cy="330" r="8" fill="#3E77FF" opacity="0.75"/>

  <!-- Bottom right of shield -->
  <circle cx="790" cy="360" r="8" fill="#3E77FF" opacity="0.8"/>
  <circle cx="760" cy="375" r="8" fill="#3E77FF" opacity="0.8"/>

  <!-- Bottom center of shield -->
  <circle cx="730" cy="380" r="8" fill="#3E77FF" opacity="0.8"/>
  <circle cx="700" cy="385" r="8" fill="#3E77FF" opacity="0.8"/>
  <circle cx="670" cy="380" r="8" fill="#3E77FF" opacity="0.8"/>

  <!-- Bottom left -->
  <circle cx="640" cy="375" r="8" fill="#3E77FF" opacity="0.8"/>
  <circle cx="610" cy="360" r="8" fill="#3E77FF" opacity="0.8"/>

  <!-- Left side of shield -->
  <circle cx="590" cy="330" r="8" fill="#3E77FF" opacity="0.75"/>
  <circle cx="585" cy="290" r="8" fill="#3E77FF" opacity="0.75"/>
  <circle cx="590" cy="250" r="8" fill="#3E77FF" opacity="0.75"/>
  <circle cx="600" cy="210" r="8" fill="#3E77FF" opacity="0.75"/>

  <!-- Top left of shield -->
  <circle cx="610" cy="175" r="8" fill="#3E77FF" opacity="0.8"/>
  <circle cx="630" cy="155" r="8" fill="#3E77FF" opacity="0.8"/>

  <!-- Interior nodes for shield fill effect -->
  <circle cx="700" cy="220" r="6" fill="#3E77FF" opacity="0.5"/>
  <circle cx="730" cy="250" r="6" fill="#3E77FF" opacity="0.45"/>
  <circle cx="670" cy="260" r="6" fill="#3E77FF" opacity="0.45"/>
  <circle cx="700" cy="300" r="6" fill="#3E77FF" opacity="0.4"/>

  <!-- Connecting lines for shield perimeter -->
  <line x1="700" y1="150" x2="730" y2="140" stroke="#3E77FF" stroke-width="1.5" opacity="0.5"/>
  <line x1="730" y1="140" x2="760" y2="145" stroke="#3E77FF" stroke-width="1.5" opacity="0.5"/>
  <line x1="760" y1="145" x2="790" y2="155" stroke="#3E77FF" stroke-width="1.5" opacity="0.5"/>
  <line x1="790" y1="155" x2="810" y2="175" stroke="#3E77FF" stroke-width="1.5" opacity="0.5"/>
  <line x1="810" y1="175" x2="820" y2="210" stroke="#3E77FF" stroke-width="1.5" opacity="0.5"/>
  <line x1="820" y1="210" x2="825" y2="250" stroke="#3E77FF" stroke-width="1.5" opacity="0.5"/>
  <line x1="825" y1="250" x2="820" y2="290" stroke="#3E77FF" stroke-width="1.5" opacity="0.5"/>
  <line x1="820" y1="290" x2="810" y2="330" stroke="#3E77FF" stroke-width="1.5" opacity="0.5"/>
  <line x1="810" y1="330" x2="790" y2="360" stroke="#3E77FF" stroke-width="1.5" opacity="0.5"/>
  <line x1="790" y1="360" x2="760" y2="375" stroke="#3E77FF" stroke-width="1.5" opacity="0.5"/>
  <line x1="760" y1="375" x2="730" y2="380" stroke="#3E77FF" stroke-width="1.5" opacity="0.5"/>
  <line x1="730" y1="380" x2="700" y2="385" stroke="#3E77FF" stroke-width="1.5" opacity="0.5"/>
  <line x1="700" y1="385" x2="670" y2="380" stroke="#3E77FF" stroke-width="1.5" opacity="0.5"/>
  <line x1="670" y1="380" x2="640" y2="375" stroke="#3E77FF" stroke-width="1.5" opacity="0.5"/>
  <line x1="640" y1="375" x2="610" y2="360" stroke="#3E77FF" stroke-width="1.5" opacity="0.5"/>
  <line x1="610" y1="360" x2="590" y2="330" stroke="#3E77FF" stroke-width="1.5" opacity="0.5"/>
  <line x1="590" y1="330" x2="585" y2="290" stroke="#3E77FF" stroke-width="1.5" opacity="0.5"/>
  <line x1="585" y1="290" x2="590" y2="250" stroke="#3E77FF" stroke-width="1.5" opacity="0.5"/>
  <line x1="590" y1="250" x2="600" y2="210" stroke="#3E77FF" stroke-width="1.5" opacity="0.5"/>
  <line x1="600" y1="210" x2="610" y2="175" stroke="#3E77FF" stroke-width="1.5" opacity="0.5"/>
  <line x1="610" y1="175" x2="630" y2="155" stroke="#3E77FF" stroke-width="1.5" opacity="0.5"/>
  <line x1="630" y1="155" x2="700" y2="150" stroke="#3E77FF" stroke-width="1.5" opacity="0.5"/>

  <!-- Interior connecting lines -->
  <line x1="700" y1="220" x2="730" y2="250" stroke="#3E77FF" stroke-width="1" opacity="0.35"/>
  <line x1="730" y1="250" x2="700" y2="300" stroke="#3E77FF" stroke-width="1" opacity="0.35"/>
  <line x1="700" y1="300" x2="670" y2="260" stroke="#3E77FF" stroke-width="1" opacity="0.35"/>
  <line x1="670" y1="260" x2="700" y2="220" stroke="#3E77FF" stroke-width="1" opacity="0.35"/>

  <!-- RIGHT SIDE: Trust indicator with checkmark-like elements -->
  <circle cx="950" cy="200" r="12" fill="#EF9F27" opacity="0.7"/>
  <line x1="940" y1="210" x2="950" y2="220" stroke="#EF9F27" stroke-width="2" opacity="0.8"/>
  <line x1="950" y1="220" x2="965" y2="200" stroke="#EF9F27" stroke-width="2" opacity="0.8"/>

  <!-- Additional trust nodes -->
  <circle cx="1000" cy="250" r="8" fill="#91c1ff" opacity="0.6"/>
  <circle cx="920" cy="300" r="8" fill="#91c1ff" opacity="0.6"/>
  <circle cx="1010" cy="320" r="8" fill="#3E77FF" opacity="0.65"/>

  <!-- Connecting lines to trust nodes -->
  <line x1="950" y1="200" x2="1000" y2="250" stroke="#EF9F27" stroke-width="1.5" opacity="0.4"/>
  <line x1="950" y1="200" x2="920" y2="300" stroke="#91c1ff" stroke-width="1.5" opacity="0.4"/>
  <line x1="1000" y1="250" x2="1010" y2="320" stroke="#3E77FF" stroke-width="1.5" opacity="0.35"/>
</svg>